# xmcd
#
# Track frame offsets:
#	150
#	18640
#	36170
#	55011
#	75784
#	94421
#	116918
#	140557
#	156346
#	176680
#	196377
#	216605
#	239084
#	260729
#	281257
#	307564
#
# Disc length: 4352 seconds
#
# Revision: 122730114
# Processed by: cddbd v1.5.1PL0 Copyright (c) Steve Scherf et al.
# Submitted via: EasyCDDAExtractor 8.0.2.1
#
DISCID=e710fe10
DTITLE=Various Artist - WOW Gospel 2005 CD-1
DYEAR=2005
DGENRE=Gospel
TTITLE0=Fred Hammond - Celebrate
TTITLE1=Deitrick Haddon - God Is Good
TTITLE2=Kierra "KiKi' Sheard - You Don't Know
TTITLE3=Ted and Sheri - God Will Take Care
TTITLE4=CeCe Winans - Hallelujah Praise
TTITLE5=Donald Lawrence and Co. - Healed
TTITLE6=Vickie Yohe - Because Of Who You Are
TTITLE7=Shea Norman - 'Tis So Sweet
TTITLE8=Vickie Winans - We Need A Word From The Lord
TTITLE9=John P. Kee - In Your Name
TTITLE10=Tonex and Peculiar People - Make Me Over
TTITLE11=Bishop T.D. Jakes - Take My Life
TTITLE12=Donald Lawrence - In The Presence Of A King
TTITLE13=Donnie McClurkin - The Prayer
TTITLE14=Hezekiah Walker - You Covered Me
TTITLE15=Various Artist - Sweet Spirit
EXTD=
EXTT0=
EXTT1=
EXTT2=
EXTT3=
EXTT4=
EXTT5=
EXTT6=
EXTT7=
EXTT8=
EXTT9=
EXTT10=
EXTT11=
EXTT12=
EXTT13=
EXTT14=
EXTT15=
PLAYORDER=
